<?xml version="1.0" encoding="UTF-8"?>
<svg id="Ebene_1" data-name="Ebene 1" xmlns="http://www.w3.org/2000/svg" viewBox="0 0 209 209">
  <defs>
    <style>
      .cls-1 {
        fill: #666;
      }

      .cls-1, .cls-2 {
        stroke-width: 0px;
      }

      .cls-2 {
        fill: #fff;
      }
    </style>
  </defs>
  <path class="cls-1" d="M0,103.4v-.53c0-3.71.48-7.4.96-11.08,0-.01,0-.02,0-.03C6.32,48.25,37.92,12.94,80.5,2.99c1.3-.3,2.6-.59,3.9-.86C91.19.7,98.11,0,105.05,0h.84C109.68,0,113.44.5,117.21.97c.01,0,.02,0,.03,0,43.3,5.16,78.81,36.94,88.76,79.53.01.05.02.1.03.14,2.04,8.77,2.96,17.76,2.96,26.77v2.45c0,2.3-.38,4.58-.88,6.83-.04.18-.07.36-.09.55-5.16,43.3-36.94,78.81-79.53,88.76-1.16.27-2.33.53-3.5.78-7.05,1.5-14.25,2.22-21.46,2.22h-.43c-3.8,0-7.56-.5-11.33-.97-.01,0-.02,0-.03,0-43.3-5.16-78.82-36.94-88.76-79.53-.26-1.12-.51-2.24-.75-3.36C.72,117.99,0,110.7,0,103.4ZM104.35,8.87c-52.51.02-95.44,42.85-95.48,95.27-.04,53.16,42.71,96,95.77,95.98,52.73-.02,95.5-42.92,95.48-95.77-.02-52.72-42.92-95.5-95.77-95.48Z"/>
  <path class="cls-2" d="M95,0c-4.83.99-9.69,1.87-14.5,2.99C37.92,12.94,6.32,48.25.96,91.75c-.14,1.11-.64,2.17-.96,3.25C0,63.42,0,31.83,0,0c31.67,0,63.33,0,95,0Z"/>
  <path class="cls-2" d="M209,95c-.99-4.83-1.87-9.69-2.99-14.5C196.06,37.92,160.54,6.14,117.24.98,116.14.85,115.08.33,114,0c31.67,0,63.33,0,95,0v95Z"/>
  <path class="cls-2" d="M0,114c.99,4.83,1.87,9.69,2.99,14.5,9.95,42.58,45.46,74.36,88.76,79.53,1.1.13,2.16.64,3.24.98H0C0,177.33,0,145.67,0,114Z"/>
  <path class="cls-2" d="M114,209c4.83-.99,9.69-1.87,14.5-2.99,42.59-9.95,74.36-45.46,79.53-88.76.13-1.1.64-2.16.98-3.24v95h-95Z"/>
  <path class="cls-2" d="M104.35,8.87c52.85-.02,95.76,42.75,95.77,95.48.02,52.85-42.76,95.76-95.48,95.77-53.06.02-95.81-42.83-95.77-95.98.04-52.42,42.97-95.25,95.48-95.27ZM97.52,99.04c-1.78.12-3.09.29-4.4.28-9.16-.04-18.32-.07-27.48-.22-3.66-.06-7.21.55-7.29,4.84-.09,4.69,3.62,5.12,7.46,5.1,8.99-.05,17.99.33,26.97.11,4.06-.1,5.1,1.35,5.04,5.18-.15,9.82.12,19.65.16,29.47.01,3.22,1.09,5.84,4.59,5.94,3.58.1,5.35-2.16,5.3-5.79-.05-3.5,0-7,0-10.49,0-7.77,0-15.53,0-23.79,2.26,0,4.05-.01,5.84,0,8.83.06,17.65.12,26.48.21,3.25.03,5.63-1.03,5.75-4.68.13-3.92-2.31-5.19-5.79-5.19-1.67,0-3.33,0-5,0-8.95,0-17.9,0-27.48,0,0-2.65.02-4.43,0-6.2-.14-8.82-.29-17.64-.45-26.46-.06-3.06-1.41-5.76-4.6-5.07-2,.43-4.5,2.85-5.02,4.83-.81,3.1-.1,6.59-.09,9.92.02,7.28,0,14.55,0,22.02Z"/>
  <path class="cls-1" d="M97.52,99.04c0-7.47.01-14.74,0-22.02,0-3.33-.72-6.82.09-9.92.52-1.98,3.02-4.4,5.02-4.83,3.19-.69,4.54,2.01,4.6,5.07.16,8.82.31,17.64.45,26.46.03,1.78,0,3.56,0,6.2,9.58,0,18.53,0,27.48,0,1.67,0,3.33,0,5,0,3.48,0,5.92,1.27,5.79,5.19-.12,3.65-2.51,4.71-5.75,4.68-8.83-.09-17.65-.14-26.48-.21-1.79-.01-3.58,0-5.84,0,0,8.26,0,16.02,0,23.79,0,3.5-.04,7,0,10.49.05,3.64-1.72,5.89-5.3,5.79-3.5-.09-4.57-2.71-4.59-5.94-.04-9.82-.31-19.65-.16-29.47.06-3.83-.98-5.28-5.04-5.18-8.99.21-17.98-.16-26.97-.11-3.84.02-7.55-.41-7.46-5.1.08-4.29,3.63-4.9,7.29-4.84,9.16.15,18.32.17,27.48.22,1.31,0,2.62-.16,4.4-.28Z"/>
</svg>